<svg xmlns="http://www.w3.org/2000/svg" viewBox="0 0 240 176" width="240" height="176">
  <path d="M74.5,12.0L85.5,12.0L94.0,12.1L100.0,12.4L103.5,12.8L104.5,13.3L105.4,13.8L106.3,14.4L107.1,15.1L107.9,15.9L108.4,16.8L108.8,17.8L109.0,18.9L109.0,20.1L108.4,21.7L107.1,23.6L105.3,25.8L102.8,28.3L100.8,30.8L99.3,33.3L98.3,35.8L97.8,38.3L98.0,40.8L99.0,43.3L100.8,45.8L103.3,48.3L105.6,50.3L107.9,51.8L110.0,52.8L112.0,53.3L114.4,53.5L117.3,53.5L120.6,53.3L124.4,52.8L127.8,51.8L130.9,50.3L133.8,48.3L136.3,45.8L138.1,43.4L139.4,41.3L140.0,39.4L140.0,37.6L139.4,35.6L138.1,33.4L136.3,30.9L133.8,28.1L131.9,25.6L130.6,23.4L130.0,21.4L130.0,19.6L130.2,18.1L130.6,16.9L131.1,15.9L131.9,15.1L132.8,14.4L133.9,13.8L135.3,13.3L136.8,12.8L140.5,12.4L146.5,12.1L154.8,12.0L165.3,12.0L173.5,12.3L179.5,12.9L183.3,13.9L184.8,15.1L185.9,16.6L186.8,18.2L187.4,20.0L187.6,22.0L187.6,25.2L187.2,29.6L186.5,35.1L185.5,41.9L184.8,47.8L184.3,52.8L184.0,56.9L184.0,60.1L184.1,62.9L184.4,65.3L184.8,67.3L185.3,68.8L185.7,69.9L186.1,70.8L186.4,71.4L186.6,71.6L187.8,71.1L189.8,69.7L192.6,67.5L196.4,64.5L199.9,62.3L203.3,60.8L206.5,60.0L209.5,60.0L212.1,60.2L214.4,60.6L216.3,61.1L217.8,61.9L219.3,62.9L220.9,64.3L222.6,66.0L224.4,68.0L225.9,70.5L227.3,73.5L228.5,77.0L229.5,81.0L230.0,84.9L230.0,88.8L229.5,92.6L228.5,96.4L227.3,99.7L225.9,102.6L224.4,105.0L222.6,107.0L220.9,108.7L219.3,110.1L217.8,111.1L216.3,111.9L214.4,112.4L212.3,112.8L209.9,113.0L207.1,113.0L204.8,112.9L202.8,112.6L201.1,112.3L199.9,111.8L198.4,110.9L196.6,109.6L194.6,108.0L192.4,106.0L190.5,104.6L189.0,103.7L187.9,103.4L187.1,103.6L186.5,105.6L186.0,109.4L185.6,114.9L185.4,122.1L185.4,129.0L185.6,135.5L186.1,141.6L186.9,147.4L187.1,152.1L186.9,155.7L186.1,158.3L184.9,159.8L181.1,160.9L174.9,161.8L166.1,162.4L154.9,162.6L146.1,162.7L139.9,162.6L136.1,162.3L134.9,161.8L133.8,161.2L132.8,160.6L131.9,159.9L131.1,159.1L130.6,158.3L130.2,157.3L130.0,156.1L130.0,154.9L130.7,153.2L132.1,151.1L134.1,148.5L136.9,145.5L139.0,142.7L140.5,140.1L141.4,137.6L141.6,135.4L141.3,133.2L140.4,131.1L139.0,129.0L137.0,127.0L134.9,125.3L132.8,123.9L130.6,122.9L128.4,122.1L125.8,121.6L122.9,121.4L119.8,121.4L116.3,121.6L113.4,121.9L111.1,122.3L109.5,122.8L108.5,123.3L107.3,124.2L105.8,125.6L104.0,127.4L102.0,129.6L100.6,131.8L99.7,133.9L99.4,136.0L99.6,138.0L100.4,140.3L101.8,142.8L103.8,145.5L106.3,148.5L108.1,150.9L109.4,152.8L110.0,154.1L110.0,154.9L109.8,155.8L109.3,156.8L108.5,157.9L107.5,159.1L106.3,160.2L104.9,161.1L103.4,161.8L101.6,162.3L97.8,162.6L91.8,162.9L83.6,163.0L73.4,163.0L65.4,162.8L59.6,162.3L56.1,161.5L54.9,160.5L53.8,159.5L52.9,158.5L52.3,157.5L51.8,156.5L51.6,153.8L51.9,149.3L52.5,143.0L53.5,135.0L54.3,128.2L54.8,122.6L55.0,118.1L55.0,114.9L54.9,112.1L54.6,109.7L54.3,107.8L53.8,106.3L53.2,105.1L52.6,104.2L51.9,103.6L51.1,103.4L49.8,103.8L47.8,104.9L45.1,106.8L41.9,109.3L38.7,111.1L35.6,112.4L32.5,113.0L29.5,113.0L27.0,112.9L25.0,112.6L23.5,112.3L22.5,111.8L21.4,111.1L20.1,110.2L18.8,109.1L17.3,107.9L15.8,106.4L14.4,104.6L13.1,102.6L11.9,100.4L10.9,97.6L10.1,94.4L9.6,90.6L9.4,86.4L9.6,82.4L10.2,78.6L11.3,75.1L12.8,71.9L14.3,69.1L15.8,66.9L17.3,65.1L18.8,63.9L20.4,62.8L22.1,61.8L24.0,60.9L26.0,60.1L28.0,59.6L30.0,59.4L32.0,59.4L34.0,59.6L36.4,60.5L39.1,62.0L42.3,64.1L45.8,66.9L48.6,68.9L50.7,70.1L52.1,70.6L52.9,70.4L53.5,69.0L54.0,66.5L54.4,62.9L54.6,58.1L54.6,52.6L54.2,46.2L53.5,39.0L52.5,31.0L52.1,24.6L52.4,19.9L53.3,16.8L54.8,15.3L55.9,14.1L56.8,13.2L57.4,12.6L57.6,12.4L60.6,12.2L66.2,12.1Z" fill="#D9E8A5"/>
</svg>